<svg width="61" height="67" viewBox="0 0 61 67" fill="none" xmlns="http://www.w3.org/2000/svg">
<g clip-path="url(#clip0)">
<path d="M25.0323 34.0844H18.8375C18.7742 34.0844 18.7426 34.116 18.711 34.1792C18.553 36.9906 18.0157 39.9915 17.2571 42.4555C17.2571 42.4871 17.2572 42.5186 17.2888 42.5502C17.3204 42.5818 17.352 42.5818 17.3836 42.5818H19.5012C19.5644 42.5818 19.596 42.5502 19.596 42.5186C20.1965 40.6233 20.6706 38.1594 20.8603 36.0745H22.8831V42.4871C22.8831 42.5502 22.9463 42.6134 23.0095 42.6134H25.0323C25.0955 42.6134 25.1587 42.5502 25.1587 42.4871V34.1792C25.1587 34.116 25.0955 34.0844 25.0323 34.0844ZM51.2338 34.0844H49.211C49.1478 34.0844 49.0846 34.1476 49.0846 34.2108V40.6233C48.6421 40.7497 48.1996 40.8128 47.6939 40.8128C46.3665 40.8128 46.0504 40.4022 46.0504 38.6332V34.2108C46.0504 34.1476 45.9872 34.0844 45.924 34.0844H43.9328C43.8696 34.0844 43.8064 34.1476 43.8064 34.2108V38.8543C43.8064 41.7605 44.7862 42.8661 47.2831 42.8661C48.7053 42.8661 50.3173 42.4871 51.2654 42.1396C51.297 42.108 51.3287 42.0764 51.3287 42.0448V34.2108C51.3603 34.116 51.2971 34.0844 51.2338 34.0844ZM8.3758 34.0844H6.3214C6.25819 34.0844 6.22658 34.116 6.22658 34.1792C5.91052 35.4427 5.24679 37.5908 4.36181 39.8336L2.30741 34.1792C2.2758 34.1476 2.2442 34.116 2.21259 34.116H0.12658C0.0949737 34.116 0.0633675 34.1476 0.0317613 34.1792C0.000155087 34.2108 0.000155087 34.2424 0.0317613 34.2739L3.12917 42.7398C2.81311 43.4031 2.52865 43.9401 2.2442 44.4456C2.02295 44.8246 1.83332 45.2037 1.64368 45.5828C1.61207 45.6144 1.61207 45.6459 1.64368 45.6775C1.67528 45.7091 1.70689 45.7407 1.7385 45.7407H3.98254C4.01414 45.7407 4.07736 45.7091 4.07736 45.6775C4.45663 44.951 4.93073 43.9401 5.37321 42.8977C6.70067 39.802 7.74368 36.8958 8.53383 34.2424C8.53383 34.2108 8.53383 34.1792 8.50223 34.1476C8.43902 34.0844 8.40741 34.0844 8.3758 34.0844ZM15.7401 40.6233C15.7401 40.5917 15.7084 40.5601 15.6768 40.5601H15.582C15.0763 40.7497 14.1597 40.876 13.5276 40.876C12.1053 40.876 11.4416 40.497 11.4416 38.3489C11.4416 36.6115 11.6628 35.8218 13.5276 35.8218C14.0649 35.8218 14.539 35.885 15.1711 36.0745C15.2344 36.0745 15.266 36.0745 15.2976 36.0113C15.5188 35.5691 15.8033 35.0321 16.1193 34.3687V34.2739C16.1193 34.2424 16.0877 34.2108 16.0561 34.2108C15.2344 33.9581 14.2546 33.8001 13.3696 33.8001C10.4302 33.8001 9.10275 35.19 9.10275 38.3173C9.10275 41.4762 10.4302 42.8977 13.3696 42.8977C14.0965 42.8977 15.582 42.7398 16.2774 42.4555C16.3406 42.4239 16.3722 42.3607 16.3406 42.2975L15.7401 40.6233ZM34.9882 34.0844H32.9338C32.8706 34.0844 32.839 34.116 32.839 34.1792C32.523 35.4743 31.8592 37.5908 30.9742 39.8336L28.9198 34.1792C28.8882 34.1476 28.8566 34.116 28.825 34.116H26.739C26.7074 34.116 26.6758 34.1476 26.6442 34.1792C26.6126 34.2108 26.6126 34.2424 26.6442 34.2739L29.7416 42.7398C29.4255 43.4031 29.1411 43.9401 28.8566 44.4456C28.6354 44.8246 28.4458 45.2037 28.2561 45.6143C28.2245 45.6459 28.2245 45.6775 28.2561 45.7091C28.2877 45.7407 28.3193 45.7723 28.3509 45.7723H30.595C30.6266 45.7723 30.6898 45.7407 30.6898 45.7091C31.0691 44.9826 31.5432 43.9717 31.9856 42.9293C33.2815 39.8336 34.3561 36.9274 35.1463 34.2739C35.1463 34.2424 35.1463 34.2108 35.1147 34.1792C35.0514 34.0844 35.0198 34.0844 34.9882 34.0844ZM42.5737 34.0844H36.6002C36.5369 34.0844 36.4737 34.1476 36.4737 34.2108V42.5186C36.4737 42.5818 36.5369 42.645 36.6002 42.645H38.623C38.6862 42.645 38.7494 42.5818 38.7494 42.5186V36.1061H41.8784C41.91 36.1061 41.9732 36.0745 41.9732 36.0429C42.2261 35.4743 42.4473 34.8741 42.7002 34.2739V34.1792C42.6369 34.0844 42.6053 34.0844 42.5737 34.0844Z" fill="#EF4058"/>
<path d="M10.7777 21.3225C7.86995 21.3225 6.73212 22.5861 6.73212 25.7765C6.73212 29.0302 7.86995 30.2938 10.7777 30.2938C13.7171 30.2938 14.8549 29.0302 14.8549 25.7765C14.8549 22.5545 13.7171 21.3225 10.7777 21.3225ZM10.7777 28.43C9.45026 28.43 9.03938 28.0825 9.03938 25.8081C9.03938 23.4074 9.48186 23.1863 10.7777 23.1863C12.1052 23.1863 12.5477 23.4074 12.5477 25.8081C12.5477 28.0825 12.1368 28.43 10.7777 28.43ZM22.9461 28.0825C22.9461 28.0509 22.9145 28.0194 22.8829 28.0194H22.7881C22.2824 28.2089 21.3658 28.3352 20.7337 28.3352C19.3114 28.3352 18.6477 27.9562 18.6477 25.8081C18.6477 24.0707 18.8689 23.281 20.7337 23.281C21.271 23.281 21.7451 23.3442 22.3772 23.5337C22.4404 23.5337 22.472 23.5337 22.5036 23.4706C22.7249 23.0283 23.0093 22.4913 23.3254 21.8279V21.7332C23.3254 21.7016 23.2938 21.67 23.2622 21.67C22.4404 21.4173 21.4606 21.2593 20.5756 21.2593C17.6363 21.2593 16.3088 22.6492 16.3088 25.7765C16.3088 28.9354 17.6363 30.3569 20.5756 30.3569C21.3026 30.3569 22.7881 30.199 23.4834 29.9147C23.5466 29.8831 23.5782 29.8199 23.5466 29.7567L22.9461 28.0825ZM6.1 21.5436H0.126425C0.0632124 21.5436 0 21.6068 0 21.67V29.9779C0 30.041 0.0632124 30.1042 0.126425 30.1042H2.14922C2.21244 30.1042 2.27565 30.041 2.27565 29.9779V23.5337H5.37306C5.40466 23.5337 5.46788 23.5021 5.46788 23.4706C5.72072 22.902 5.94197 22.3018 6.19482 21.7016V21.6068C6.16321 21.5752 6.13161 21.5436 6.1 21.5436Z" fill="#1466AC"/>
<path d="M60.684 41.7289V41.6025C60.684 41.5394 60.684 41.4446 60.7156 41.3814C60.8104 40.2126 60.8736 38.7911 60.9368 37.1485V37.0222C60.9684 35.9165 61 34.7162 61 33.4842C61 32.2522 60.9684 31.0519 60.9368 29.9463V29.8199C60.8736 28.2089 60.8104 26.7558 60.7156 25.587C60.7156 25.5238 60.7156 25.429 60.684 25.3659V25.2395C60.684 25.1132 60.6523 25.0184 60.6523 24.892V24.7657C60.5575 23.5337 60.4943 22.7756 60.4627 22.7124C60.4627 22.586 60.4311 22.4597 60.4311 22.3649V22.2702C60.3995 22.049 60.3679 21.8595 60.3047 21.6384C60.3047 21.6068 60.3047 21.5752 60.2731 21.5436C59.7358 18.9849 58.3135 16.1735 56.5435 14.057C55.8482 13.2357 55.1213 12.5092 54.3627 11.9406C54.2995 11.8774 53.4145 11.2456 52.0238 10.2664C50.4119 9.16077 48.1047 7.61292 45.4814 6.09665C40.8036 3.34842 36.6632 1.4215 36.0943 1.20038C36.0627 1.20038 36.0627 1.16879 36.0627 1.16879C34.8301 0.631777 33.3446 0.252711 31.7327 0.0947666C31.4166 0.0631777 31.1005 0.0315889 30.7845 0.0315889C30.4684 0 30.184 0 29.8995 0H29.457C27.3078 0.0631777 25.3166 0.442244 23.7363 1.16879C23.515 1.26355 19.3114 3.19048 14.5389 6.00189L14.3492 6.09665C9.45027 8.97124 5.62592 11.8142 5.46789 11.9406C4.26685 12.8251 3.19224 13.9623 2.21245 15.4154C1.99121 15.7313 1.99121 16.5526 2.93939 16.5526H5.37307C6.41608 16.5526 6.66893 15.9208 7.83836 15.0679C9.13421 14.1202 11.6943 12.2249 16.372 9.44507C19.7539 7.45497 22.9145 5.87553 24.4632 5.14899C24.4948 5.14899 24.5264 5.1174 24.558 5.1174C24.558 5.1174 24.5897 5.1174 24.5897 5.08581C24.5897 5.08581 24.6213 5.08581 24.6213 5.05422C24.6529 5.05422 24.6845 5.02263 24.6845 5.02263C24.7161 5.02263 24.7477 4.99104 24.7793 4.99104C25.1586 4.80151 25.4114 4.70674 25.4114 4.70674C26.486 4.23291 28.0031 3.91702 29.615 3.88543H30.2472C30.7213 3.88543 31.1954 3.91702 31.6378 3.9802C32.6176 4.10655 33.5026 4.29609 34.2295 4.61198C34.2928 4.64356 34.3876 4.67515 34.4508 4.70674C34.4508 4.70674 34.4824 4.73833 34.5772 4.76992C35.3042 5.08581 39.2233 6.94955 43.4902 9.44507C46.0187 10.9298 48.2627 12.4144 49.8114 13.4884C51.1705 14.4361 51.9922 15.0363 52.0238 15.0679C52.6244 15.5101 53.2249 16.1419 53.7938 16.8369C55.2161 18.669 56.3855 21.1645 56.5751 23.0915C56.5751 23.1231 56.67 23.8812 56.7648 25.1763C56.7648 25.2711 56.7648 25.3343 56.7964 25.429V25.6186C56.7964 25.7449 56.828 25.8397 56.828 25.9661V26.0924C56.828 26.1556 56.828 26.2504 56.8596 26.3135C56.8596 26.4715 56.8912 26.6294 56.8912 26.7874C56.8912 26.8821 56.8912 26.9769 56.9228 27.0717V27.1348C56.9228 27.2612 56.9228 27.356 56.9544 27.4823V27.735C57.0492 29.3777 57.1124 31.3362 57.1124 33.3894C57.1124 35.4427 57.0492 37.4012 56.9544 39.0438V39.2966C56.9544 39.4229 56.9544 39.5177 56.9228 39.644V39.7072C56.9228 39.802 56.9228 39.8967 56.8912 39.9915C56.8912 40.1495 56.8596 40.3074 56.8596 40.4653C56.8596 40.5601 56.8596 40.6233 56.828 40.6865V40.8128C56.828 40.9392 56.7964 41.0339 56.7964 41.1603V41.3498C56.7964 41.4446 56.7964 41.5394 56.7648 41.6025C56.67 42.8977 56.5751 43.6874 56.5751 43.6874C56.3855 45.6143 55.2161 48.1099 53.7938 49.942C53.2249 50.6686 52.6244 51.2687 52.0238 51.711C51.9922 51.711 51.1705 52.3428 49.8114 53.2904C48.2627 54.3644 45.9871 55.8491 43.4902 57.3338C39.2233 59.8609 35.2726 61.6931 34.5772 62.009L34.4508 62.0721C34.3876 62.1037 34.2928 62.1353 34.2295 62.1669C33.5026 62.4512 32.6176 62.6723 31.6378 62.7987C31.1954 62.8619 30.7213 62.8934 30.2472 62.8934H29.615C28.0031 62.8619 26.486 62.5776 25.4114 62.0721C25.4114 62.0721 25.1902 61.9774 24.7793 61.7878C24.7477 61.7562 24.6845 61.7562 24.6529 61.7247C24.6213 61.6931 24.5897 61.6931 24.558 61.6615C24.5264 61.6615 24.5264 61.6299 24.4948 61.6299C24.4632 61.6299 24.4316 61.5983 24.4 61.5983C24.3684 61.5667 24.3368 61.5667 24.2736 61.5351H24.242C22.6301 60.9033 19.5959 59.3871 16.372 57.4917C11.6627 54.7435 9.13421 52.8166 7.83836 51.8689C6.66893 51.016 6.41608 50.3843 5.37307 50.3843H2.93939C1.99121 50.3843 1.99121 51.2056 2.21245 51.5215C3.19224 52.9745 4.26685 54.1117 5.46789 54.9962C5.62592 55.1226 9.48188 57.9656 14.3492 60.8402C14.6021 60.9981 14.8549 61.1561 15.1394 61.2824C19.6591 63.8727 23.5466 65.6417 23.7679 65.768C25.3166 66.463 27.3394 66.8736 29.4886 66.9368H29.9311C30.2156 66.9368 30.5 66.9368 30.7845 66.9052C31.1005 66.9052 31.4166 66.8736 31.7327 66.8421C33.3446 66.6841 34.8617 66.305 36.0627 65.768C36.0627 65.768 36.0943 65.768 36.0943 65.7365C36.6316 65.4837 40.8036 63.5568 45.4498 60.8402C48.0731 59.2923 50.3803 57.776 51.9922 56.6704C53.3829 55.6912 54.2679 55.0594 54.3311 54.9962C55.0896 54.4276 55.8166 53.7011 56.5119 52.8798C58.2819 50.7633 59.7042 47.9519 60.2415 45.3932C60.2415 45.3616 60.2415 45.33 60.2731 45.2984C60.3047 45.0773 60.3679 44.8562 60.3995 44.6667V44.5719C60.4311 44.4455 60.4311 44.3192 60.4311 44.2244C60.4311 44.1612 60.5259 43.4031 60.6207 42.1711V42.0448C60.684 41.95 60.684 41.8553 60.684 41.7289Z" fill="url(#paint0_linear)"/>
</g>
<defs>
<linearGradient id="paint0_linear" x1="31.5449" y1="0" x2="31.5449" y2="66.9946" gradientUnits="userSpaceOnUse">
<stop offset="0.398" stop-color="#1466AC"/>
<stop offset="0.659" stop-color="#EF4058"/>
</linearGradient>
<clipPath id="clip0">
<rect width="61" height="67" fill="white"/>
</clipPath>
</defs>
</svg>
